<svg width="60" height="60" fill="none" xmlns="http://www.w3.org/2000/svg"><path d="M28 .063C19.192.72 11.339 4.978 6.031 11.974c-3.035 4-4.923 8.566-5.758 13.925-.306 1.96-.306 6.242 0 8.202 1.283 8.229 5.261 14.982 11.709 19.874 3.983 3.022 8.574 4.919 13.917 5.752 1.96.306 6.242.306 8.202 0 7.291-1.136 13.488-4.423 18.138-9.62 4.123-4.606 6.505-9.699 7.488-16.006.306-1.96.306-6.242 0-8.202-.833-5.343-2.73-9.934-5.752-13.917C49.014 5.444 41.924 1.33 33.75.248 32.579.093 29.099-.019 28 .063M38.8 13.7v3.5l-2.375.002c-2.618.003-2.875.052-3.444.66-.446.479-.481.709-.481 3.195V23.4h3.15c1.733 0 3.15.034 3.15.075-.001.558-.656 6.2-.761 6.55-.048.161-.27.175-2.795.175h-2.743l-.026 9.975-.025 9.975h-8.2l-.025-9.975-.026-9.975H20.2v-6.7H24.185l.039-3.625c.036-3.31.058-3.691.251-4.389.551-1.993 1.726-3.474 3.448-4.347.617-.313 2.044-.716 2.927-.826.385-.048 2.331-.093 4.325-.1L38.8 10.2v3.5" fill="#fff" fill-rule="evenodd"/></svg>