<svg width="60" height="60" fill="none" xmlns="http://www.w3.org/2000/svg"><path d="M28 .063C19.192.72 11.337 4.98 6.025 11.982 3.003 15.965 1.106 20.556.273 25.899c-.306 1.96-.306 6.242 0 8.202 1.135 7.283 4.408 13.461 9.597 18.117 4.609 4.134 9.71 6.524 16.029 7.509 1.96.306 6.242.306 8.202 0 7.291-1.136 13.488-4.423 18.138-9.62 4.123-4.606 6.505-9.699 7.488-16.006.306-1.96.306-6.242 0-8.202-.833-5.348-2.73-9.933-5.758-13.925C49.017 5.447 41.917 1.33 33.75.248 32.579.093 29.099-.019 28 .063M43.381 15.77c.593.3 1.097.808 1.439 1.45.189.356.229.584.228 1.33 0 .783-.035.966-.268 1.411-.38.721-1.168 1.401-1.859 1.602-1.886.548-3.829-.665-4.078-2.547-.046-.342-.122-.527-.231-.561-.267-.083-5.661-1.338-5.677-1.321-.069.075-2.121 6.713-2.086 6.749.026.025.509.085 1.074.132 1.971.164 4.127.631 5.676 1.229.935.361 2.594 1.17 3.025 1.474.274.194.274.194.6-.051 2.039-1.529 4.771-.876 5.896 1.409.3.608.33.753.33 1.572-.001.8-.036.976-.311 1.557-.351.742-.794 1.289-1.296 1.599l-.343.212-.001 1.117c-.002 1.306-.163 2.087-.647 3.134-2.357 5.1-10.453 8.241-18.252 7.079-5.408-.805-9.763-3.412-11.526-6.899-.539-1.064-.722-1.894-.723-3.272 0-.701-.028-1.275-.062-1.275-.033 0-.269-.183-.523-.407-.305-.268-.589-.665-.839-1.169-.352-.714-.377-.823-.377-1.669.001-.804.035-.977.31-1.555.535-1.125 1.415-1.844 2.639-2.158 1.006-.257 1.944-.094 2.953.513l.594.358.352-.21c2.536-1.511 5.737-2.432 9.252-2.66l1-.065.782-2.464c1.767-5.567 1.681-5.324 1.917-5.414.156-.059 1.146.135 3.361.657 1.727.407 3.196.741 3.265.742a.127.127 0 0 0 .127-.124c.002-.069.158-.336.347-.594.865-1.179 2.604-1.582 3.932-.911M23.967 30.162c-1.243.382-1.924 1.909-1.377 3.088a2.313 2.313 0 0 0 2.132 1.348 2.152 2.152 0 0 0 1.697-.789 2.265 2.265 0 0 0-1.219-3.701c-.568-.13-.644-.127-1.233.054m10.875-.07c-.473.116-1.101.503-1.339.825-.534.722-.629 1.558-.266 2.337.399.857 1.149 1.346 2.063 1.346a2.276 2.276 0 0 0 2.298-2.278c.002-.605-.152-1.035-.535-1.489-.476-.565-1.521-.913-2.221-.741m-10.385 8.241c-.316.231-.23.667.206 1.041 1.113.955 2.901 1.446 5.287 1.451 2.397.005 4.007-.404 5.196-1.322.566-.437.673-.629.543-.979-.156-.423-.527-.388-1.194.114-2.034 1.529-6.949 1.534-8.977.01-.639-.48-.779-.522-1.061-.315" fill="#fff" fill-rule="evenodd"/></svg>