<svg width="120" height="120" viewBox="0 0 120 120" fill="none" xmlns="http://www.w3.org/2000/svg">
<circle cx="59.9999" cy="60" r="60" fill="white"/>
<path d="M36.4278 33.71C43.0251 27.2453 51.8982 23.6314 61.1349 23.647C61.4157 23.647 61.6952 23.6503 61.9781 23.6568C68.2319 23.8104 74.3337 25.6162 79.664 28.8908C84.9942 32.1653 89.363 36.7921 92.3267 42.3012L93.2411 44.0069L84.7197 42.1129L83.3896 48.0953L99.0244 51.5708C99.752 51.7331 100.514 51.6243 101.167 51.2648C101.82 50.9052 102.32 50.3197 102.572 49.6181L108 34.5499L102.235 32.4729L98.9143 41.6891L97.979 39.8879C94.5521 33.2921 89.4168 27.7377 83.1096 23.8049C76.8024 19.8721 69.5547 17.7052 62.1239 17.5306C61.7863 17.5223 61.4534 17.5182 61.1165 17.5182C50.4354 17.5354 40.1706 21.6622 32.4501 29.0432C24.7297 36.4242 20.1457 46.4932 19.6487 57.1627L25.7769 57.3096C26.1978 48.3751 30.0063 39.9364 36.4278 33.71Z" fill="#2E9F25"/>
<path d="M21.7786 78.8507L22.7182 80.6493C26.1623 87.2359 31.3118 92.7769 37.629 96.6934C43.9462 100.61 51.1992 102.758 58.6303 102.914C58.9315 102.92 59.2306 102.923 59.5296 102.923C70.2297 102.907 80.5116 98.7665 88.2364 91.3626C95.9612 83.9586 100.534 73.8615 101.004 63.1717L94.8761 63.0408C94.4436 72.1292 90.5322 80.703 83.9518 86.9866C77.3714 93.2702 68.6263 96.7821 59.5276 96.795C59.2741 96.795 59.0166 96.7924 58.7618 96.7868C52.5076 96.6496 46.401 94.8598 41.0623 91.599C35.7236 88.3382 31.3429 83.7227 28.3651 78.2212L27.4465 76.5177L35.9735 78.3898L37.2876 72.4037L21.6433 68.9695C20.9152 68.8085 20.1534 68.919 19.5011 69.2802C18.8488 69.6414 18.351 70.2285 18.1011 70.9311L12.7115 86.0131L18.4821 88.0753L21.7786 78.8507Z" fill="#2E9F25"/>
<path d="M62.7558 80.6902V75.4962L63.5177 75.3872C65.9374 75.0398 68.1356 73.7887 69.6698 71.8855C71.2039 69.9824 71.9601 67.5688 71.786 65.1305C71.6119 62.6922 70.5204 60.4105 68.7314 58.7446C66.9424 57.0788 64.5888 56.1527 62.1443 56.1526H59.3449C58.4459 56.1494 57.5848 55.79 56.9502 55.1531C56.3157 54.5162 55.9594 53.6538 55.9594 52.7548C55.9594 51.8558 56.3157 50.9934 56.9502 50.3565C57.5848 49.7196 58.4459 49.3602 59.3449 49.357H71.2081V43.8366H63.4952V38.6328H57.9743V43.9163L57.2913 44.078C55.1637 44.5811 53.2951 45.8483 52.0406 47.6387C50.786 49.4292 50.2329 51.6181 50.4863 53.7896C50.7397 55.9611 51.782 57.9638 53.4152 59.4173C55.0483 60.8707 57.1585 61.6735 59.3447 61.6732H62.1441C63.2414 61.6768 64.2926 62.1152 65.0673 62.8925C65.842 63.6697 66.277 64.7223 66.277 65.8197C66.277 66.9171 65.842 67.9697 65.0673 68.747C64.2926 69.5242 63.2414 69.9627 62.1441 69.9662H50.2614V75.4866H57.2352V80.6902H62.7558Z" fill="#2E9F25"/>
</svg>
