<svg width="31" height="34" viewBox="0 0 31 34" fill="none" xmlns="http://www.w3.org/2000/svg">
<path d="M15.4631 0.750448C15.475 0.751031 15.4869 0.751333 15.4988 0.751352C15.5701 0.75147 15.6403 0.768826 15.7034 0.801943C15.7666 0.835059 15.8208 0.882954 15.8614 0.941544L15.8615 0.941493C16.1124 1.29614 19.5812 5.52058 29.8077 5.52058C29.925 5.52058 30.0375 5.56718 30.1204 5.65013C30.2034 5.73308 30.25 5.84558 30.25 5.96289V16.4075C30.25 21.6896 28.2315 25.0695 25.6294 27.3842C22.9917 29.7305 19.7302 31.0067 17.1839 31.9952L17.1839 31.9952L17.1787 31.9973L15.6764 32.5934C15.6675 32.597 15.6587 32.6007 15.6499 32.6046C15.6027 32.6254 15.5516 32.6362 15.5 32.6362C15.4484 32.6362 15.3973 32.6254 15.3501 32.6046C15.3407 32.6004 15.3312 32.5965 15.3217 32.5927L13.8074 31.9965L13.8061 31.996L13.7902 31.9898C11.25 30.9953 7.99986 29.7228 5.36887 27.384C2.7685 25.0724 0.75 21.6957 0.75 16.4075V5.96289C0.75 5.84558 0.7966 5.73308 0.879549 5.65013C0.962497 5.56718 1.075 5.52058 1.19231 5.52058C6.3626 5.52058 9.81185 4.42954 11.9918 3.30259C13.0799 2.74004 13.8455 2.17178 14.3466 1.73371C14.5969 1.51483 14.7809 1.32881 14.9058 1.19273C14.9683 1.12469 15.0159 1.06916 15.0498 1.02826C15.0667 1.00781 15.0802 0.991016 15.0903 0.978148L15.0998 0.965976C15.1123 0.949983 15.1243 0.933358 15.1358 0.91611C15.1713 0.862469 15.2201 0.81899 15.2775 0.789944C15.3349 0.760899 15.3989 0.747288 15.4631 0.750448Z" stroke="#EBF1F9" stroke-width="1.5" stroke-linejoin="round"/>
<path fill-rule="evenodd" clip-rule="evenodd" d="M20.537 13.6376H19.6771V11.918C19.6771 9.51049 17.7855 7.6189 15.3781 7.6189C12.9706 7.6189 11.079 9.51049 11.079 11.918V13.6376H10.2191C9.27335 13.6376 8.49951 14.4115 8.49951 15.3573V23.9554C8.49951 24.9012 9.27335 25.6751 10.2191 25.6751H20.537C21.4828 25.6751 22.2566 24.9012 22.2566 23.9554V15.3573C22.2566 14.4115 21.4828 13.6376 20.537 13.6376ZM15.3781 9.25255C16.8397 9.25255 18.0435 10.4563 18.0435 11.918V13.6376H12.7986H12.7126V11.918C12.7126 10.4563 13.9164 9.25255 15.3781 9.25255ZM20.537 23.9554H10.2191V15.3573H20.537V23.9554ZM15.3781 21.376C16.3238 21.376 17.0977 20.6021 17.0977 19.6563C17.0977 18.7105 16.3238 17.9367 15.3781 17.9367C14.4323 17.9367 13.6584 18.7105 13.6584 19.6563C13.6584 20.6021 14.4323 21.376 15.3781 21.376Z" fill="#EBF1F9"/>
</svg>
