<svg width="60" height="60" fill="none" xmlns="http://www.w3.org/2000/svg"><path d="M28 .063C19.192.72 11.339 4.978 6.031 11.974c-3.035 4-4.923 8.566-5.758 13.925-.306 1.96-.306 6.242 0 8.202 1.283 8.229 5.261 14.982 11.709 19.874 3.983 3.022 8.574 4.919 13.917 5.752 1.96.306 6.242.306 8.202 0 7.291-1.136 13.488-4.423 18.138-9.62 4.123-4.606 6.505-9.699 7.488-16.006.306-1.96.306-6.242 0-8.202-.833-5.343-2.73-9.934-5.752-13.917C49.014 5.444 41.924 1.33 33.75.248 32.579.093 29.099-.019 28 .063m13.097 15.634c1.039.3 2.169.913 2.895 1.57l.615.556.828-.208c1.04-.261 2.191-.698 3.293-1.251.834-.419.851-.423.757-.176-.455 1.197-1.482 2.583-2.544 3.434-.434.347-.606.539-.502.56.402.082 2.858-.554 4.005-1.036.157-.067.139-.009-.097.311-.959 1.297-1.918 2.254-2.909 2.905l-.811.533-.054 1.828c-.058 1.976-.257 3.303-.776 5.17-.8 2.884-2.403 6.001-4.271 8.307-.697.86-2.405 2.567-3.253 3.25-5.323 4.286-13.125 5.756-20.094 3.784-1.635-.462-3.594-1.307-5.01-2.16l-.57-.343 1.257.048c3.366.13 6.952-.907 9.534-2.756l.66-.472-.7-.076c-2.786-.301-5.116-2.035-6.282-4.675l-.243-.55h1.112c.612 0 1.376-.06 1.697-.134l.585-.134-.94-.316c-1.28-.431-1.974-.865-2.982-1.866-1.302-1.293-1.986-2.734-2.201-4.638-.056-.49-.08-.911-.054-.938.026-.026.196.045.378.157.475.294 1.732.692 2.43.77l.6.067-.45-.405c-.247-.222-.48-.406-.517-.409-.167-.01-1.222-1.423-1.587-2.123-.602-1.157-.82-2.092-.823-3.531-.003-1.372.167-2.236.648-3.279l.312-.679 1.189 1.202c.654.66 1.558 1.498 2.008 1.862 2.738 2.208 6.095 3.831 9.47 4.581 1.123.249 3.354.547 3.434.458.022-.025.001-.36-.047-.745-.171-1.369.17-3.274.814-4.551 1.007-1.997 3.013-3.539 5.254-4.04.984-.22 2.94-.151 3.942.138" fill="#fff" fill-rule="evenodd"/></svg>