<svg width="120" height="120" viewBox="0 0 120 120" fill="none" xmlns="http://www.w3.org/2000/svg">
<circle cx="60" cy="60" r="60" fill="white"/>
<path d="M59.0726 23.7496C59.0738 23.748 59.0749 23.7465 57.0736 22.2483L59.0749 23.7465C59.1038 23.7079 59.1316 23.6685 59.1582 23.6283C59.1857 23.5868 59.2234 23.5533 59.2677 23.5308L58.1389 21.3002L59.2677 23.5308C59.312 23.5084 59.3614 23.4979 59.411 23.5003C59.4506 23.5023 59.4901 23.5033 59.5297 23.5034C59.6046 23.5035 59.6782 23.5217 59.7445 23.5564L60.9019 21.3494L59.7445 23.5565C59.8108 23.5912 59.8677 23.6415 59.9103 23.7029L59.9105 23.7028C60.6744 24.785 69.508 35.3599 95.1035 35.3599C95.2266 35.3599 95.3447 35.4088 95.4317 35.4959C95.5188 35.5829 95.5677 35.701 95.5677 35.8241V61.7899C95.5677 74.7297 90.6352 82.9628 84.2938 88.6038C77.8339 94.3503 69.831 97.4879 63.4902 99.9496L63.4729 99.9564L59.7381 101.438C59.7083 101.45 59.6788 101.463 59.6496 101.476C59.6131 101.492 59.5737 101.5 59.5338 101.5C59.494 101.5 59.4546 101.492 59.4181 101.476C59.3868 101.462 59.3552 101.449 59.3233 101.436L55.5588 99.9539L55.5544 99.9522L55.5503 99.9506C49.2175 97.4712 41.2254 94.3422 34.7695 88.6032C28.4327 82.9701 23.5 74.7449 23.5 61.7899V35.8241C23.5 35.701 23.5489 35.5829 23.6359 35.4959C23.723 35.4088 23.841 35.3599 23.9641 35.3599C36.9101 35.3599 45.5866 32.6273 51.104 29.7749C53.8568 28.3518 55.8022 26.9097 57.0846 25.7885C57.7253 25.2284 58.1992 24.7496 58.5248 24.3949C58.6876 24.2176 58.8132 24.0713 58.9042 23.9615C58.9496 23.9066 58.9864 23.8607 59.0148 23.8247C59.0289 23.8067 59.041 23.7911 59.051 23.778L59.0645 23.7603L59.0701 23.7529L59.0726 23.7496Z" stroke="#D46F63" stroke-width="5" stroke-linejoin="round"/>
<path fill-rule="evenodd" clip-rule="evenodd" d="M70.875 54H68.9792V50.2857C68.9792 45.0857 64.8083 41 59.5 41C54.1917 41 50.0208 45.0857 50.0208 50.2857V54H48.125C46.0396 54 44.3333 55.6714 44.3333 57.7143V76.2857C44.3333 78.3286 46.0396 80 48.125 80H70.875C72.9604 80 74.6667 78.3286 74.6667 76.2857V57.7143C74.6667 55.6714 72.9604 54 70.875 54ZM59.5 44.5286C62.7229 44.5286 65.3771 47.1286 65.3771 50.2857V54H53.8125H53.6229V50.2857C53.6229 47.1286 56.2771 44.5286 59.5 44.5286ZM70.875 76.2857H48.125V57.7143H70.875V76.2857ZM59.5 70.7143C61.5854 70.7143 63.2917 69.0429 63.2917 67C63.2917 64.9571 61.5854 63.2857 59.5 63.2857C57.4146 63.2857 55.7083 64.9571 55.7083 67C55.7083 69.0429 57.4146 70.7143 59.5 70.7143Z" fill="#D46F63"/>
</svg>
