<svg width="255" height="255" viewBox="0 0 255 255" fill="none" xmlns="http://www.w3.org/2000/svg">
<circle cx="127.5" cy="127.5" r="127.5" fill="#EBF1F9"/>
<path d="M68.5 47.5H150.5V162.5H68.5V47.5Z" stroke="black" stroke-width="3"/>
<rect x="86.157" y="87.8298" width="2.40186" height="5.87135" fill="#DDDFE0" stroke="black" stroke-width="2.40186"/>
<rect x="92.6856" y="87.8298" width="2.40186" height="5.87135" fill="#DDDFE0" stroke="black" stroke-width="2.40186"/>
<rect x="99.0107" y="87.8298" width="2.40186" height="5.87135" fill="#DDDFE0" stroke="black" stroke-width="2.40186"/>
<rect x="105.336" y="87.8298" width="2.40186" height="5.87135" fill="#DDDFE0" stroke="black" stroke-width="2.40186"/>
<rect x="111.661" y="87.8298" width="2.40186" height="5.87135" fill="#DDDFE0" stroke="black" stroke-width="2.40186"/>
<rect x="117.987" y="87.8298" width="2.40186" height="5.87135" fill="#DDDFE0" stroke="black" stroke-width="2.40186"/>
<rect x="124.312" y="87.8298" width="2.40186" height="5.87135" fill="#DDDFE0" stroke="black" stroke-width="2.40186"/>
<rect x="130.637" y="87.8298" width="2.40186" height="5.87135" fill="#DDDFE0" stroke="black" stroke-width="2.40186"/>
<rect x="85.6455" y="105.121" width="47.8665" height="1.37887" fill="#DDDFE0" stroke="black" stroke-width="1.37887"/>
<rect x="85.6455" y="110.637" width="47.8665" height="1.37887" fill="#DDDFE0" stroke="black" stroke-width="1.37887"/>
<rect x="85.6455" y="115.911" width="47.8665" height="1.37887" fill="#DDDFE0" stroke="black" stroke-width="1.37887"/>
<path d="M119.233 68.3235C119.233 68.3153 119.233 68.3031 119.233 68.2949C119.233 68.2296 119.233 68.1643 119.229 68.103C119.229 68.0663 119.225 68.0296 119.225 67.9887C119.225 67.952 119.221 67.9152 119.221 67.8785C119.216 67.8336 119.216 67.7887 119.212 67.7438C119.212 67.7152 119.208 67.6866 119.208 67.658C119.204 67.609 119.2 67.56 119.196 67.5111C119.196 67.4906 119.192 67.4661 119.192 67.4457C119.188 67.3927 119.18 67.3396 119.176 67.2824C119.176 67.2702 119.172 67.2538 119.172 67.2416C118.632 62.4976 114.605 58.8109 109.716 58.8109C104.827 58.8109 100.8 62.4976 100.261 67.2457C100.261 67.2579 100.257 67.2743 100.257 67.2865C100.253 67.3396 100.244 67.3927 100.24 67.4498C100.236 67.4702 100.236 67.4947 100.236 67.5151C100.232 67.5641 100.228 67.6131 100.224 67.6621C100.224 67.6907 100.22 67.7193 100.22 67.7478C100.216 67.7928 100.216 67.8377 100.212 67.8826C100.212 67.9193 100.208 67.9561 100.208 67.9928C100.208 68.0296 100.204 68.0663 100.204 68.1071C100.204 68.1724 100.199 68.2378 100.199 68.299C100.199 68.3072 100.199 68.3194 100.199 68.3276C100.199 68.3276 100.199 68.3276 100.199 68.3317C100.199 68.3357 100.199 68.3317 100.199 68.3357C100.199 68.3439 100.199 68.3562 100.199 68.3643C100.199 68.4297 100.199 68.495 100.204 68.5562C100.204 68.593 100.208 68.6297 100.208 68.6705C100.208 68.7073 100.212 68.744 100.212 68.7808C100.216 68.8257 100.216 68.8706 100.22 68.9155C100.22 68.9441 100.224 68.9726 100.224 69.0012C100.228 69.0502 100.232 69.0992 100.236 69.1482C100.236 69.1686 100.24 69.1931 100.24 69.2135C100.244 69.2666 100.253 69.3197 100.257 69.3768C100.257 69.3891 100.261 69.4054 100.261 69.4177C100.8 74.1576 104.827 77.8443 109.716 77.8443C114.605 77.8443 118.632 74.1576 119.172 69.4136C119.172 69.4013 119.176 69.385 119.176 69.3727C119.18 69.3197 119.188 69.2666 119.192 69.2094C119.196 69.189 119.196 69.1645 119.196 69.1441C119.2 69.0951 119.204 69.0461 119.208 68.9971C119.208 68.9686 119.212 68.94 119.212 68.9114C119.216 68.8665 119.216 68.8216 119.221 68.7767C119.221 68.7399 119.225 68.7032 119.225 68.6664C119.225 68.6297 119.229 68.593 119.229 68.5521C119.229 68.4868 119.233 68.4215 119.233 68.3602C119.233 68.3521 119.233 68.3398 119.233 68.3317C119.233 68.3276 119.233 68.3276 119.233 68.3235C119.233 68.3276 119.233 68.3276 119.233 68.3235Z" fill="#2E9F25"/>
<path d="M108.363 72.3055L114.792 66.0115L113.918 65.1554L108.322 70.6345L105.937 68.2985L105.063 69.1543L108.321 72.3457L108.362 72.3053L108.363 72.3055Z" fill="white"/>
<rect x="150.049" y="154.623" width="35.1478" height="19.183" rx="4.5" transform="rotate(-30 150.049 154.623)" fill="#EBF1F9" stroke="black" stroke-width="3"/>
<rect x="141.049" y="154.623" width="35.1478" height="19.183" rx="4.5" transform="rotate(-30 141.049 154.623)" fill="#EBF1F9" stroke="black" stroke-width="3"/>
<rect x="132.049" y="154.623" width="35.1478" height="19.183" rx="4.5" transform="rotate(-30 132.049 154.623)" fill="#EBF1F9" stroke="black" stroke-width="3"/>
<rect x="129.5" y="150.5" width="67" height="49" rx="4.5" fill="#EBF1F9" stroke="black" stroke-width="3"/>
<path d="M129.5 160.5H178C180.485 160.5 182.5 162.515 182.5 165V185C182.5 187.485 180.485 189.5 178 189.5H129.5V160.5Z" fill="#EBF1F9" stroke="black" stroke-width="3"/>
<path d="M196.5 168.5H179C175.41 168.5 172.5 171.41 172.5 175C172.5 178.59 175.41 181.5 179 181.5H196.5V168.5Z" fill="#EBF1F9" stroke="black" stroke-width="3"/>
<circle cx="179" cy="175" r="2" fill="black"/>
</svg>
