<svg width="255" height="255" viewBox="0 0 255 255" fill="none" xmlns="http://www.w3.org/2000/svg">
<circle cx="127.5" cy="127.5" r="127.5" fill="#EBF1F9"/>
<rect x="117.5" y="105.5" width="17" height="70" stroke="black" stroke-width="3"/>
<rect x="79.5" y="122.5" width="17" height="93" transform="rotate(-90 79.5 122.5)" stroke="black" stroke-width="3"/>
<rect x="83.5" y="175.5" width="53" height="85" transform="rotate(-90 83.5 175.5)" stroke="black" stroke-width="3"/>
<path d="M115.124 97.306C115.995 100.178 118.178 102.444 120.36 104.074C120.554 104.219 120.75 104.36 120.946 104.497C117.835 104.485 114.275 104.422 110.725 104.194C107.621 103.995 104.558 103.672 101.838 103.155C99.098 102.634 96.804 101.934 95.1796 101.03C90.735 98.556 87.6431 93.236 87.5048 88.4991C87.4369 86.1726 88.0816 84.0894 89.5096 82.5336C90.9339 80.9818 93.298 79.7801 97.0088 79.5268C101.837 79.1974 105.865 81.9647 109.026 85.837C112.176 89.6974 114.246 94.4093 115.124 97.306Z" stroke="black" stroke-width="3"/>
<path d="M138.876 97.306C138.005 100.178 135.822 102.444 133.64 104.074C133.446 104.219 133.25 104.36 133.054 104.497C136.165 104.485 139.725 104.422 143.275 104.194C146.379 103.995 149.442 103.672 152.162 103.155C154.902 102.634 157.196 101.934 158.82 101.03C163.265 98.556 166.357 93.236 166.495 88.4991C166.563 86.1726 165.918 84.0894 164.49 82.5336C163.066 80.9818 160.702 79.7801 156.991 79.5268C152.163 79.1974 148.135 81.9647 144.974 85.837C141.824 89.6974 139.754 94.4093 138.876 97.306Z" stroke="black" stroke-width="3"/>
<path d="M188.295 65.656V69.4865V73.4896V84.7565C187.267 84.1415 186.063 83.7806 184.77 83.7806C181.032 83.7806 178 86.7406 178 90.3883C178 94.04 181.031 97 184.77 97C188.506 97 191.536 94.0408 191.537 90.3899V72.5795L208.758 67.7446V79.0526C207.731 78.4377 206.526 78.0768 205.233 78.0768C201.494 78.0768 198.463 81.0359 198.463 84.6837C198.463 88.3346 201.494 91.2953 205.233 91.2953C208.753 91.2953 211.647 88.6638 211.968 85.3042H212V66.8344V63.9963V59L188.295 65.656Z" fill="#2E9F25"/>
<circle cx="79.5" cy="180.5" r="25" fill="#EBF1F9" stroke="black" stroke-width="3"/>
<path d="M73.8824 167.471C72.5491 166.691 70.8721 167.653 70.8721 169.197V191.803C70.8721 193.347 72.5491 194.309 73.8824 193.529L93.1909 182.226C94.5104 181.454 94.5104 179.546 93.1909 178.774L73.8824 167.471Z" fill="#2E9F25"/>
</svg>
