<svg width="100" height="100" viewBox="0 0 100 100" fill="none" xmlns="http://www.w3.org/2000/svg">
<circle cx="50" cy="50" r="48" fill="#2E9F25" stroke="#FFF4F4" stroke-width="4"/>
<path d="M71.9155 51.9717V76.1532C71.9155 77.6041 70.9415 78.5714 69.4805 78.5714H30.5194C29.0584 78.5714 28.0844 77.6041 28.0844 76.1532V51.9717H47.5649V73.735H52.435V51.9717H71.9155ZM47.5649 35.0446H25.6493C24.1883 35.0446 23.2142 36.0118 23.2142 37.4627V44.7172C23.2142 46.1681 24.1883 47.1353 25.6493 47.1353H47.5649V35.0446ZM74.3506 35.0446H52.435V47.1353H74.3506C75.8116 47.1353 76.7857 46.1681 76.7857 44.7172V37.4627C76.7857 36.0118 75.8116 35.0446 74.3506 35.0446ZM67.2889 32.3846L67.5324 31.4173C68.5064 28.9992 68.2629 26.0974 66.8019 23.9211C65.3409 21.7447 62.6623 20.5356 59.9837 20.5356C56.5746 20.5356 53.6525 22.4702 52.435 25.6138L47.5649 37.4627H59.7402C62.9058 37.4627 66.0714 35.5282 67.2889 32.3846ZM57.0616 27.3065C57.5487 26.0974 58.7662 25.372 59.9837 25.372C60.9577 25.372 61.9318 25.8556 62.6623 26.8228C63.1493 27.7901 63.3928 28.7574 62.9058 29.7246L62.6623 30.6919C62.1753 31.901 60.9577 32.6264 59.7402 32.6264H54.8701L57.0616 27.3065ZM47.5649 25.6138C46.3474 22.4702 43.1818 20.5356 40.0162 20.5356C37.3376 20.5356 34.659 21.7447 33.198 24.1629C31.737 26.3392 31.4935 28.9992 32.4675 31.6592L32.711 32.6264C33.9285 35.5282 37.0941 37.4627 40.2597 37.4627H52.1915L47.5649 25.6138ZM42.9383 27.3065L45.1298 32.6264H40.2597C39.0422 32.6264 37.8246 31.901 37.3376 30.6919L36.8506 29.7246C36.6071 28.7574 36.6071 27.5483 37.3376 26.8228C37.8246 25.8556 38.7986 25.372 40.0162 25.372C41.2337 25.372 42.4512 26.0974 42.9383 27.3065Z" fill="#FFF4F4"/>
</svg>
