<svg width="1374" height="347" viewBox="0 0 1374 347" fill="none" xmlns="http://www.w3.org/2000/svg">
<mask id="path-1-inside-1_122_266" fill="white">
<path d="M210.6 116.349V234.721H23.3999V116.349"/>
</mask>
<path d="M210.6 234.721V236.721H212.6V234.721H210.6ZM23.3999 234.721H21.3999V236.721H23.3999V234.721ZM208.6 116.349V234.721H212.6V116.349H208.6ZM210.6 232.721H23.3999V236.721H210.6V232.721ZM25.3999 234.721V116.349H21.3999V234.721H25.3999Z" fill="#DDDFE0" mask="url(#path-1-inside-1_122_266)"/>
<path d="M1 58.1626H233V115.349H1V58.1626Z" stroke="#DDDFE0" stroke-width="2"/>
<path d="M117 234.721V57.1626" stroke="#DDDFE0" stroke-width="2"/>
<path d="M115.447 56.8828C115.572 57.3887 115.675 57.8255 115.758 58.186H64.3501C56.8615 58.186 49.6773 55.1764 44.3784 49.8155C39.0792 44.4541 36.1001 37.1801 36.1001 29.593C36.1001 22.0059 39.0792 14.7319 44.3784 9.37057C49.6773 4.0096 56.8615 1 64.3501 1C84.263 1 97.1648 15.3768 105.153 30.0706C109.134 37.3949 111.854 44.7286 113.578 50.2369C114.439 52.9893 115.051 55.2814 115.447 56.8828Z" stroke="#DDDFE0" stroke-width="2"/>
<path d="M169.65 58.186H118.242C118.325 57.8255 118.429 57.3887 118.554 56.8828C118.949 55.2814 119.561 52.9893 120.422 50.2369C122.146 44.7286 124.866 37.3949 128.847 30.0706C136.835 15.3768 149.737 1 169.65 1C177.139 1 184.323 4.0096 189.622 9.37057C194.921 14.7319 197.9 22.0059 197.9 29.593C197.9 37.1801 194.921 44.4541 189.622 49.8155C184.323 55.1764 177.139 58.186 169.65 58.186Z" stroke="#DDDFE0" stroke-width="2"/>
<path d="M1373 123.752V151.817V168.517V276.192H1372.9L1372.82 277.101C1371.04 296.37 1355.04 311.444 1335.59 311.444C1314.92 311.444 1298.16 294.483 1298.16 273.542C1298.16 252.619 1314.92 235.667 1335.59 235.667C1342.73 235.667 1349.39 237.733 1355.07 241.258L1356.6 242.205V240.408V173.872V172.539L1355.32 172.912L1257.56 201.36L1256.84 201.57V202.32V307.117C1256.84 328.058 1240.07 345.011 1219.43 345.011C1198.77 345.011 1182 328.054 1182 307.108C1182 286.186 1198.77 269.228 1219.43 269.228C1226.57 269.228 1233.23 271.294 1238.91 274.82L1240.44 275.767V273.97V207.676V184.122V162.333L1373 123.752Z" stroke="#DDDFE0" stroke-width="2"/>
</svg>
